Coordinates
version=1
nRows=17
nColumns=33
inDegrees=yes

Units are S.I. units (second, meters, Newtons, ...)
Angles are in degrees.

endheader
time	ground_thorax_rot_x	ground_thorax_rot_y	ground_thorax_rot_z	ground_thorax_tx	ground_thorax_ty	ground_thorax_tz	clav_prot_r	clav_elev_r	scapula_abduction_r	scapula_elevation_r	scapula_upward_rot_r	scapula_winging_r	shoulder_elv_r	plane_of_elev_r	axial_rot_r	elbow_flexion_r	pro_sup_r	wrist_flex_r	wrist_dev_r	clav_prot_l	clav_elev_l	scapula_abduction_l	scapula_elevation_l	scapula_upward_rot_l	scapula_winging_l	shoulder_elv_l	plane_of_elev_l	axial_rot_l	elbow_flexion_l	pro_sup_l	wrist_flex_l	wrist_dev_l
      1.55000000	      2.25435404	      3.43856919	     12.92680924	     -0.12258763	      1.03660880	      0.03332791	      5.52390216	      9.96934440	     22.16331037	      5.40986761	     24.53415114	    -11.86387380	     29.04715805	    -71.74485130	     59.74852402	     69.55648296	    -23.14703163	     45.61453727	    -24.99999983	     13.98705503	     -8.73865822	    -20.64296146	    -15.76099313	    -40.39675176	      1.91771969	     66.99731335	    -29.81915816	     -2.34670864	     67.86785071	      6.17936272	     18.82108274	    -14.34662229
      1.56000000	      2.26579050	      3.37580841	     12.94915989	     -0.12249251	      1.03653354	      0.03295808	      5.60239505	      9.75765163	     22.65397795	      5.12349015	     24.87099419	    -12.02991309	     29.29498142	    -71.12728562	     59.50429128	     69.31020804	    -23.37929296	     45.08444123	    -24.99999983	     14.19083773	     -9.05951499	    -20.87490997	    -15.26453472	    -39.97814384	      2.07420926	     67.13168549	    -29.03504367	     -2.58789779	     66.85554437	      6.22970037	     18.87043287	    -14.09865890
      1.57000000	      2.13079021	      3.21225319	     12.88670274	     -0.12233612	      1.03599149	      0.03253600	      5.73308998	      9.51550529	     23.44891464	      4.74012164	     25.44052146	    -12.30698595	     29.23422070	    -70.61563744	     59.17887245	     69.56567392	    -24.85513598	     41.49735389	    -24.99999983	     14.45758418	     -8.91615537	    -21.19291271	    -15.08781424	    -39.33127559	      2.31868352	     66.73572756	    -27.86624736	     -2.33109794	     65.70246306	      5.57835906	     19.69246783	    -13.04141900
      1.58000000	      1.97840743	      3.13078570	     12.96764799	     -0.12244449	      1.03576478	      0.03203788	      5.95463451	      9.06820111	     24.07036633	      4.32880866	     25.54838616	    -12.47132439	     29.37014728	    -69.82476393	     58.55845331	     69.41070454	    -25.19051041	     37.94584802	    -24.99999983	     14.89825899	     -9.19485243	    -21.81900371	    -14.57131091	    -38.80486516	      2.67890437	     66.56336865	    -27.16574201	     -2.25174041	     64.63416567	      4.55864870	     20.85588737	    -11.65602440
      1.59000000	      1.93155545	      3.11439190	     12.97553561	     -0.12233292	      1.03556925	      0.03152412	      6.14781882	      8.62806201	     24.71283810	      3.89604906	     25.75583553	    -12.64911864	     29.55153513	    -68.91182701	     58.40959374	     68.59244276	    -25.28907719	     37.49193198	    -24.99999983	     15.18406001	     -9.67550921	    -22.18300162	    -13.91723151	    -38.36528106	      2.88037140	     66.81223713	    -26.45038295	     -2.63666585	     63.37170332	      4.61626019	     20.94189960	    -11.33935058
      1.60000000	      1.78044641	      2.94310067	     13.00598478	     -0.12213136	      1.03503311	      0.03076537	      6.24317439	      8.25997109	     25.42957173	      3.42815999	     26.29787487	    -12.86653835	     29.22353348	    -67.84279978	     58.17451448	     67.75284826	    -26.78610783	     33.90252848	    -24.99999983	     15.51435661	     -9.54440145	    -22.61207370	    -13.67942978	    -37.62282378	      3.19744443	     66.15526777	    -25.23419633	     -2.40379665	     61.75475997	      3.58985642	     22.02223016	    -10.02142391
      1.61000000	      1.75354510	      2.96461941	     13.00445034	     -0.12205101	      1.03482531	      0.03027362	      6.50862380	      7.64853890	     26.14163417	      2.88624963	     26.40539382	    -13.02889535	     29.39697068	    -66.83595050	     57.98467346	     66.52514249	    -27.04933774	     33.32112516	    -24.99999983	     15.84504625	    -10.16751502	    -23.03754106	    -12.87448695	    -37.13956854	      3.40902146	     66.40919618	    -24.52166254	     -2.85643366	     60.16009963	      3.63873499	     22.14718186	     -9.62139125
      1.62000000	      1.62332193	      2.93218832	     13.15136782	     -0.12193246	      1.03412047	      0.02963033	      6.62980182	      7.28908060	     26.73834949	      2.48345536	     26.76917136	    -13.18976559	     28.78534771	    -65.49076840	     57.74195369	     65.25357871	    -29.53861016	     29.66574239	    -24.99999983	     16.34183478	    -10.18238727	    -23.72394646	    -12.41244237	    -36.21817989	      3.86194054	     65.54951834	    -23.46516040	     -2.78141710	     58.18408433	      2.09343307	     23.59555017	     -8.01788675
      1.63000000	      1.43792317	      2.78466958	     13.17744012	     -0.12178336	      1.03363222	      0.02891029	      6.87048067	      6.65295915	     27.54479988	      1.87134548	     27.06874095	    -13.36899158	     28.39984333	    -63.86687541	     58.12894787	     63.11133214	    -30.67453597	     28.34097558	    -24.99999983	     16.70735751	    -10.46596307	    -24.22693138	    -11.86084391	    -35.61831556	      4.15480475	     65.31792816	    -22.63433265	     -2.80492482	     56.41719120	      1.55834175	     24.00395430	     -7.24669977
      1.64000000	      1.32207513	      2.72395998	     13.20883649	     -0.12159883	      1.03301078	      0.02814967	      7.08864658	      6.10737585	     28.33292117	      1.31959993	     27.43297967	    -13.54889127	     27.85328142	    -62.18395819	     58.72925297	     60.70925537	    -32.75087778	     26.97969813	    -24.99999983	     17.06868233	    -10.67221585	    -24.71474388	    -11.31835898	    -34.88695300	      4.45789023	     64.84997351	    -21.55906386	     -2.87316869	     54.26784889	      0.94827134	     24.56962479	     -6.41722337
      1.65000000	      1.14385173	      2.96692970	     13.34371236	     -0.12153376	      1.03233432	      0.02749629	      7.17521818	      5.55812148	     28.82353536	      0.78732947	     27.73172215	    -13.61600604	     26.78833183	    -60.43189610	     59.62120703	     57.99971012	    -38.22592385	     27.46181390	    -24.99999983	     17.73009407	    -10.99161565	    -25.69262215	    -10.60229575	    -34.02548521	      5.01244104	     64.26311930	    -20.60131916	     -3.22266863	     51.95883793	     -0.57102879	     25.63257295	     -5.06031794
      1.66000000	      1.18387783	      2.84344948	     13.21090128	     -0.12100002	      1.03167605	      0.02663462	      7.23042709	      5.25201712	     29.65161230	      0.31201824	     28.57035403	    -13.84134468	     25.72509044	    -58.25332702	     61.63712153	     54.30072073	    -41.51127972	     28.20894198	    -24.99999983	     17.92472954	    -11.15830787	    -25.92706797	    -10.13495965	    -33.36498392	      5.17564402	     63.54022144	    -19.01838537	     -2.75621889	     49.22915767	     -0.84197434	     25.68683558	     -4.38559435
      1.67000000	      1.07441806	      2.73791526	     13.17372491	     -0.12073719	      1.03115503	      0.02568900	      7.26694513	      5.03131559	     30.61176170	     -0.14218679	     29.62876762	    -14.11606657	     23.32972235	    -55.55486941	     64.73434716	     49.11418241	    -47.52735000	     30.29539203	    -24.99999983	     18.24191060	    -11.38703859	    -26.36479449	     -9.58674776	    -32.66008814	      5.43444367	     62.87920555	    -17.75409679	     -2.32927743	     46.54608118	     -1.21554215	     26.19183494	     -3.86563318
      1.68000000	     -2.35806089	      2.78105488	     12.93616850	     -0.12128580	      1.03084578	      0.01314941	     11.91259854	    -14.88391637	     27.21416802	    -11.79858233	     12.10267765	     -5.12971546	    -14.17893288	    -66.50051152	    120.98915153	    -63.07494606	   -164.82555789	     -1.34186899	      7.18151947	     19.20641455	     -7.24977556	    -28.07517285	    -11.75609575	    -29.55205253	      7.24743052	     59.85205481	    -14.97930161	     -2.41519219	     44.57787687	     -0.46296880	     25.74170478	     -1.85366666
      1.69000000	     -2.67426704	      2.89730826	     12.93827453	     -0.12071075	      1.03094801	      0.01283865	     12.20346938	    -15.84123966	     28.10341004	    -12.89289331	     12.83416104	     -4.85459294	    -13.04580189	    -65.55605333	    120.99118596	    -60.04887767	   -164.66910816	     -1.82810713	      7.40266773	     19.50146324	     -7.89462647	    -28.52280520	    -10.93848408	    -29.07380732	      7.47315840	     60.00001520	    -14.19859312	     -2.69060691	     41.94693613	     -0.23827622	     25.74498130	     -1.43204484
      1.70000000	     -2.81610472	      3.12765374	     12.82528473	     -0.12026266	      1.02953261	      0.01232300	     12.40005134	    -15.82070607	     28.66238637	    -12.99667110	     13.23242323	     -5.07642916	     -9.55956316	    -63.81236158	    123.34875081	    -56.75408412	   -162.73147190	     -1.97691379	      8.83908789	     20.10430807	     -7.62218740	    -29.54597986	    -10.88627437	    -28.53654408	      8.14015233	     58.99277285	    -11.97321426	     -2.11698702	     38.67209403	     -0.38350333	     26.43560420	     -1.56749423
      1.71000000	     -2.97918397	      3.29228411	     12.77165539	     -0.11960218	      1.02937839	      0.01202260	     12.45440708	    -16.40117676	     28.93442497	    -13.62694013	     13.56125179	     -4.78385254	     -6.84240374	    -62.48305853	    124.94889467	    -53.57450409	   -160.22055832	     -2.60806924	      9.16248697	     20.61191817	     -8.20065858	    -30.36978146	    -10.30151599	    -28.44274680	      8.53650921	     58.83531133	    -10.63368958	     -1.34691443	     35.95890842	      0.32092154	     26.46133656	     -1.53232977
